<svg width="22" height="21" viewBox="0 0 22 21" fill="none" xmlns="http://www.w3.org/2000/svg">
<g clip-path="url(#clip0_3171_14293)">
<path d="M1.32422 6.88125V14.4906C1.32422 15.2312 1.74094 15.9125 2.41359 16.2813L9.43875 20.1031C10.1048 20.4656 10.9186 20.4656 11.5847 20.1031L18.6098 16.2813C19.2825 15.9156 19.6992 15.2312 19.6992 14.4906V6.88125C19.6992 6.14062 19.2825 5.45938 18.6098 5.09375L11.5847 1.27188C10.9186 0.909375 10.1048 0.909375 9.43875 1.27188L2.41359 5.09375C1.74094 5.45938 1.32422 6.14375 1.32422 6.88125Z" fill="#00A88E"/>
</g>
<path d="M13.3008 8.03125C13.3008 6.5625 12.0539 5.375 10.5117 5.375C8.96953 5.375 7.72266 6.5625 7.72266 8.03125V8.5625H7.78828C8.05078 9.78125 9.16641 10.6875 10.5117 10.6875C11.857 10.6875 12.9727 9.78125 13.2352 8.5625H13.3008V8.03125ZM10.5117 6.3125C10.8727 6.3125 11.168 6.59375 11.168 6.9375C11.168 7.28125 10.8727 7.5625 10.5117 7.5625C10.1508 7.5625 9.85547 7.28125 9.85547 6.9375C9.85547 6.59375 10.1508 6.3125 10.5117 6.3125Z" fill="#BB8A19"/>
<path d="M9.52734 11.625V9.75H11.4961V15.4687H9.52734V14.4375L10.1836 13.8125L9.52734 13.1875V12.875L10.1836 12.25L9.52734 11.625Z" fill="#58595B"/>
<path d="M9.52734 9.75V11.9375L10.0195 12.4062V12.7188L9.52734 13.1875V13.5L10.0195 13.9688V14.2812L9.52734 14.75V15.4687L10.5117 16L11.4961 15.4687V9.75H9.52734Z" fill="white"/>
<path d="M10.6758 15.0625C10.7742 15.0625 10.8398 15 10.8398 14.9062V10.2188C10.8398 10.125 10.7742 10.0625 10.6758 10.0625C10.5773 10.0625 10.5117 10.125 10.5117 10.2188V14.9062C10.5117 15 10.5773 15.0625 10.6758 15.0625Z" fill="#BCBEC0"/>
<path d="M10.5117 5.6875C8.96953 5.6875 7.72266 6.875 7.72266 8.34375C7.72266 9.8125 8.96953 11 10.5117 11C12.0539 11 13.3008 9.8125 13.3008 8.34375C13.3008 6.875 12.0539 5.6875 10.5117 5.6875ZM10.5117 7.875C10.1508 7.875 9.85547 7.59375 9.85547 7.25C9.85547 6.90625 10.1508 6.625 10.5117 6.625C10.8727 6.625 11.168 6.90625 11.168 7.25C11.168 7.59375 10.8727 7.875 10.5117 7.875Z" fill="#FDB924"/>
<defs>
<clipPath id="clip0_3171_14293">
<rect width="21" height="20" fill="white" transform="translate(0.0117188 0.6875)"/>
</clipPath>
</defs>
</svg>
