<svg width="21" height="21" viewBox="0 0 21 21" fill="none" xmlns="http://www.w3.org/2000/svg">
<path d="M5.26953 2.72782L5.26953 18.6472C5.26953 19.2278 5.71764 19.6875 6.28368 19.6875L14.2554 19.6875C14.8214 19.6875 15.2695 19.2278 15.2695 18.6472L15.2695 2.72782C15.2695 2.17137 14.8214 1.6875 14.2554 1.6875L6.28368 1.6875C5.74123 1.6875 5.26953 2.14718 5.26953 2.72782ZM11.1186 17.7036C11.1186 18.1875 10.7412 18.5504 10.2931 18.5504C9.82142 18.5504 9.44406 18.1633 9.44406 17.7036C9.44406 17.2198 9.82142 16.8569 10.2931 16.8569C10.7412 16.8569 11.1186 17.244 11.1186 17.7036ZM13.9488 4.44556L13.9488 15.744L6.5667 15.744L6.5667 4.44557L13.9488 4.44556ZM11.4016 2.72782C11.5903 2.72782 11.7318 2.87298 11.7318 3.06653C11.7318 3.26008 11.5903 3.40524 11.4016 3.40524L9.11387 3.40524C8.92519 3.40524 8.78368 3.26008 8.78368 3.06653C8.78368 2.87298 8.92519 2.72782 9.11387 2.72782L11.4016 2.72782Z" fill="#00A88E"/>
</svg>
