<svg width="21" height="20" viewBox="0 0 21 20" fill="none" xmlns="http://www.w3.org/2000/svg">
<path fill-rule="evenodd" clip-rule="evenodd" d="M15.0196 4.12498V5.54164H13.6029V4.12498H15.0196ZM11.478 4.12498V5.54164H12.8946V4.12498H11.478ZM11.478 8.37494V9.7916H12.8946V8.37494H11.478ZM13.6029 8.37494V9.7916H15.0196V8.37494H13.6029ZM5.81134 3.41665H15.7279V6.24996H7.22799V7.66662H15.7279V10.4999H5.81134V9.7916H4.39469V11.9166H17.1446V2H4.39469V4.12498H5.81134V3.41665ZM19.2696 17.5832H12.7671C12.4621 18.4236 11.6637 18.9832 10.7696 18.9832C9.87559 18.9832 9.07717 18.4236 8.77215 17.5832H2.2697V16.1665H8.77215C8.98633 15.5649 9.45971 15.0916 10.0613 14.8774V12.6249H11.478V14.8774C12.0796 15.0916 12.5529 15.5649 12.7671 16.1665H19.2696V17.5832ZM11.478 16.8749C11.478 16.4837 11.1608 16.1665 10.7696 16.1665C10.3784 16.1665 10.0613 16.4837 10.0613 16.8749C10.0613 17.2661 10.3784 17.5832 10.7696 17.5832C11.1608 17.5832 11.478 17.2661 11.478 16.8749ZM2.41843 9.02661C2.50962 9.08286 2.62474 9.08286 2.71593 9.02661L5.68382 7.21329C5.76391 7.15931 5.81193 7.06905 5.81193 6.97246C5.81193 6.87587 5.76391 6.78561 5.68382 6.73163L2.71593 4.91831C2.62808 4.85649 2.51283 4.84966 2.4183 4.90068C2.32377 4.95169 2.26622 5.05178 2.26968 5.15914V8.78578C2.27274 8.88685 2.32942 8.97863 2.41843 9.02661Z" fill="#00A88E"/>
</svg>
