<svg width="21" height="20" viewBox="0 0 21 20" fill="none" xmlns="http://www.w3.org/2000/svg">
<path d="M1.7705 12.9213V12.9082C1.7705 11.9629 2.48848 11.2501 3.43978 11.2501H4.97144H6.30251L7.63357 11.25H9.16695C10.1179 11.25 10.9901 11.9628 10.9901 12.908L11.4883 16.25H1.30251L1.7705 12.9213Z" fill="#00A88E"/>
<path fill-rule="evenodd" clip-rule="evenodd" d="M13.6963 9.14757C12.1949 9.14757 10.9767 7.93895 10.9767 6.44846C10.9767 4.95875 12.1949 3.75 13.6963 3.75C15.1986 3.75 16.4169 4.95888 16.4169 6.44846C16.4169 7.93895 15.1987 9.14757 13.6963 9.14757ZM9.25905 12.0316V12.0174C9.25905 11.8055 9.28939 11.6043 9.34582 11.4186H9.43993C10.3511 11.4186 11.0384 12.1258 11.0384 13.0635L11.0405 13.0887L11.384 15.625H8.80078L9.25905 12.0316ZM9.83523 10.632L9.88928 10.625C11.1348 10.625 12.0185 11.9147 12.0199 13.0411L12.3777 15.625H18.5931L18.1377 12.0447L18.1355 12.0173C18.1355 10.9969 17.4331 10.2274 16.5019 10.2274H15.0003L12.3935 10.2276H10.8937C10.4828 10.2276 10.1165 10.3772 9.83523 10.632Z" fill="#00A88E"/>
<path d="M6.30035 10C4.92038 10 3.80078 8.8804 3.80078 7.4997C3.80078 6.11972 4.92038 5 6.30035 5C7.68106 5 8.80078 6.11984 8.80078 7.4997C8.80078 8.8804 7.68119 10 6.30035 10Z" fill="#00A88E"/>
</svg>
